<svg viewBox="0 0 900 140" xmlns="http://www.w3.org/2000/svg" xmlns:xlink="http://www.w3.org/1999/xlink" version="1.1">
<path d="M0 95L21.5 85.3C43 75.7 86 56.3 128.8 51.5C171.7 46.7 214.3 56.3 257.2 62.3C300 68.3 343 70.7 385.8 64.3C428.7 58 471.3 43 514.2 43.7C557 44.3 600 60.7 642.8 70.5C685.7 80.3 728.3 83.7 771.2 81.7C814 79.7 857 72.3 878.5 68.7L900 65L900 0L878.5 0C857 0 814 0 771.2 0C728.3 0 685.7 0 642.8 0C600 0 557 0 514.2 0C471.3 0 428.7 0 385.8 0C343 0 300 0 257.2 0C214.3 0 171.7 0 128.8 0C86 0 43 0 21.5 0L0 0Z" fill="#5E81AC" stroke-linecap="round" stroke-linejoin="miter"></path>
</svg>